# xmcd CD database file
#
# Track frame offsets:
#	183
#	32048
#	62125
#	85963
#	104780
#	121523
#	161370
#
# Disc length: 2623 seconds
#
# Revision: 1
# Processed by: cddbd v1.5.2PL0 Copyright (c) Steve Scherf et al.
# Submitted via: CDex 1.51
#
DISCID=530a3d07
DTITLE=Sixun - Nuit Blanche
DYEAR=1988
DGENRE=Jazz
TTITLE0=4.000 Newport
TTITLE1=Padre
TTITLE2=La Nouvelle Façon de Chiner
TTITLE3=Nuit Blanche
TTITLE4=Le Bal des Vampires
TTITLE5=Sixun Song
TTITLE6=Tabana
EXTD=YEAR: 1988
EXTT0=
EXTT1=
EXTT2=
EXTT3=
EXTT4=
EXTT5=
EXTT6=
PLAYORDER=
